<svg xmlns="http://www.w3.org/2000/svg" xmlns:xlink="http://www.w3.org/1999/xlink" width="842.955" height="830.58" viewBox="0 0 842.955 830.58"><defs><linearGradient id="a" x1="0.213" y1="0.808" x2="0.934" y2="0.244" gradientUnits="objectBoundingBox"><stop offset="0" stop-color="#12c2e9"/><stop offset="1" stop-color="#7d1edc"/></linearGradient><linearGradient id="b" x1="0.5" y1="0.388" x2="0.111" y2="0.917" gradientUnits="objectBoundingBox"><stop offset="0" stop-color="#ff006b"/><stop offset="1" stop-color="#f80"/></linearGradient></defs><path d="M687.63,3771.8c16,16,52,61.333,164,0s228-154.667,317.333-193.333,237.333-24,244-76-89.333-29.333-168-77.333-328,61.333-454.667,40-204,34.667-218.667,68S671.63,3755.8,687.63,3771.8Z" transform="translate(-570.338 -2972.398)" fill="url(#a)"/><path d="M1040.357,3237.333c53.333-16,81.333-2.667,100,77.333s2.667,122.667,130.667,206.667,28,73.333,121.333,198.667-310.667,81.333-352,20S987.024,3253.333,1040.357,3237.333Z" transform="translate(-844.731 -3231.397)" fill="url(#b)"/></svg>